<mxfile host="app.diagrams.net" agent="Mozilla/5.0 (Windows NT 10.0; Win64; x64) AppleWebKit/537.36 (KHTML, like Gecko) Chrome/130.0.0.0 Safari/537.36" version="24.8.4">
  <diagram name="Page-1" id="ad52d381-51e7-2e0d-a935-2d0ddd2fd229">
    <mxGraphModel grid="1" page="1" gridSize="10" guides="1" tooltips="1" connect="1" arrows="1" fold="1" pageScale="1" pageWidth="1100" pageHeight="850" background="none" math="1" shadow="0">
      <root>
        <mxCell id="0" />
        <mxCell id="1" parent="0" />
        <mxCell id="VniyFCCBy8FmLIeSqYWK-29" value="" style="group" connectable="0" vertex="1" parent="1">
          <mxGeometry x="350" y="220" width="230" height="150" as="geometry" />
        </mxCell>
        <mxCell id="VniyFCCBy8FmLIeSqYWK-55" value="" style="ellipse;shape=cloud;whiteSpace=wrap;html=1;dashed=1;dashPattern=8 8;" vertex="1" parent="VniyFCCBy8FmLIeSqYWK-29">
          <mxGeometry x="-49" y="-16" width="270" height="160" as="geometry" />
        </mxCell>
        <mxCell id="VniyFCCBy8FmLIeSqYWK-1" value="" style="ellipse;whiteSpace=wrap;html=1;" vertex="1" parent="VniyFCCBy8FmLIeSqYWK-29">
          <mxGeometry x="40" y="30" width="40" height="20" as="geometry" />
        </mxCell>
        <mxCell id="VniyFCCBy8FmLIeSqYWK-2" value="" style="ellipse;whiteSpace=wrap;html=1;" vertex="1" parent="VniyFCCBy8FmLIeSqYWK-29">
          <mxGeometry x="100" y="40" width="40" height="20" as="geometry" />
        </mxCell>
        <mxCell id="VniyFCCBy8FmLIeSqYWK-3" value="&lt;font style=&quot;font-size: 14px;&quot;&gt;&lt;i style=&quot;&quot;&gt;u&lt;/i&gt;&lt;/font&gt;" style="ellipse;whiteSpace=wrap;html=1;fontFamily=Times New Roman;" vertex="1" parent="VniyFCCBy8FmLIeSqYWK-29">
          <mxGeometry x="60" y="60" width="40" height="20" as="geometry" />
        </mxCell>
        <mxCell id="VniyFCCBy8FmLIeSqYWK-4" value="" style="ellipse;whiteSpace=wrap;html=1;" vertex="1" parent="VniyFCCBy8FmLIeSqYWK-29">
          <mxGeometry x="110" y="80" width="40" height="20" as="geometry" />
        </mxCell>
        <mxCell id="VniyFCCBy8FmLIeSqYWK-5" value="" style="ellipse;whiteSpace=wrap;html=1;" vertex="1" parent="VniyFCCBy8FmLIeSqYWK-29">
          <mxGeometry y="60" width="40" height="20" as="geometry" />
        </mxCell>
        <mxCell id="VniyFCCBy8FmLIeSqYWK-6" value="" style="ellipse;whiteSpace=wrap;html=1;" vertex="1" parent="VniyFCCBy8FmLIeSqYWK-29">
          <mxGeometry x="10" y="90" width="40" height="20" as="geometry" />
        </mxCell>
        <mxCell id="VniyFCCBy8FmLIeSqYWK-7" value="" style="ellipse;whiteSpace=wrap;html=1;" vertex="1" parent="VniyFCCBy8FmLIeSqYWK-29">
          <mxGeometry x="80" y="10" width="40" height="20" as="geometry" />
        </mxCell>
        <mxCell id="VniyFCCBy8FmLIeSqYWK-8" value="" style="ellipse;whiteSpace=wrap;html=1;" vertex="1" parent="VniyFCCBy8FmLIeSqYWK-29">
          <mxGeometry x="70" y="100" width="40" height="20" as="geometry" />
        </mxCell>
        <mxCell id="VniyFCCBy8FmLIeSqYWK-14" value="" style="endArrow=none;html=1;rounded=0;" edge="1" parent="VniyFCCBy8FmLIeSqYWK-29" source="VniyFCCBy8FmLIeSqYWK-1" target="VniyFCCBy8FmLIeSqYWK-7">
          <mxGeometry width="50" height="50" relative="1" as="geometry">
            <mxPoint x="130" y="100" as="sourcePoint" />
            <mxPoint x="180" y="50" as="targetPoint" />
          </mxGeometry>
        </mxCell>
        <mxCell id="VniyFCCBy8FmLIeSqYWK-15" value="" style="endArrow=none;html=1;rounded=0;" edge="1" parent="VniyFCCBy8FmLIeSqYWK-29" source="VniyFCCBy8FmLIeSqYWK-2" target="VniyFCCBy8FmLIeSqYWK-7">
          <mxGeometry width="50" height="50" relative="1" as="geometry">
            <mxPoint x="130" y="100" as="sourcePoint" />
            <mxPoint x="180" y="50" as="targetPoint" />
          </mxGeometry>
        </mxCell>
        <mxCell id="VniyFCCBy8FmLIeSqYWK-16" value="" style="endArrow=none;html=1;rounded=0;" edge="1" parent="VniyFCCBy8FmLIeSqYWK-29" source="VniyFCCBy8FmLIeSqYWK-3" target="VniyFCCBy8FmLIeSqYWK-7">
          <mxGeometry width="50" height="50" relative="1" as="geometry">
            <mxPoint x="130" y="100" as="sourcePoint" />
            <mxPoint x="180" y="50" as="targetPoint" />
          </mxGeometry>
        </mxCell>
        <mxCell id="VniyFCCBy8FmLIeSqYWK-17" value="" style="endArrow=none;html=1;rounded=0;" edge="1" parent="VniyFCCBy8FmLIeSqYWK-29" source="VniyFCCBy8FmLIeSqYWK-3" target="VniyFCCBy8FmLIeSqYWK-4">
          <mxGeometry width="50" height="50" relative="1" as="geometry">
            <mxPoint x="130" y="100" as="sourcePoint" />
            <mxPoint x="180" y="50" as="targetPoint" />
          </mxGeometry>
        </mxCell>
        <mxCell id="VniyFCCBy8FmLIeSqYWK-18" value="" style="endArrow=none;html=1;rounded=0;dashed=1;dashPattern=1 4;" edge="1" parent="VniyFCCBy8FmLIeSqYWK-29" target="VniyFCCBy8FmLIeSqYWK-2">
          <mxGeometry width="50" height="50" relative="1" as="geometry">
            <mxPoint x="150" y="70" as="sourcePoint" />
            <mxPoint x="180" y="50" as="targetPoint" />
          </mxGeometry>
        </mxCell>
        <mxCell id="VniyFCCBy8FmLIeSqYWK-19" value="" style="endArrow=none;html=1;rounded=0;dashed=1;dashPattern=1 4;" edge="1" parent="VniyFCCBy8FmLIeSqYWK-29" target="VniyFCCBy8FmLIeSqYWK-2">
          <mxGeometry width="50" height="50" relative="1" as="geometry">
            <mxPoint x="160" y="30" as="sourcePoint" />
            <mxPoint x="180" y="50" as="targetPoint" />
          </mxGeometry>
        </mxCell>
        <mxCell id="VniyFCCBy8FmLIeSqYWK-21" value="" style="endArrow=none;html=1;rounded=0;" edge="1" parent="VniyFCCBy8FmLIeSqYWK-29" source="VniyFCCBy8FmLIeSqYWK-1" target="VniyFCCBy8FmLIeSqYWK-5">
          <mxGeometry width="50" height="50" relative="1" as="geometry">
            <mxPoint x="130" y="100" as="sourcePoint" />
            <mxPoint x="180" y="50" as="targetPoint" />
          </mxGeometry>
        </mxCell>
        <mxCell id="VniyFCCBy8FmLIeSqYWK-22" value="" style="endArrow=none;html=1;rounded=0;dashed=1;dashPattern=1 4;" edge="1" parent="VniyFCCBy8FmLIeSqYWK-29" source="VniyFCCBy8FmLIeSqYWK-5">
          <mxGeometry width="50" height="50" relative="1" as="geometry">
            <mxPoint x="130" y="100" as="sourcePoint" />
            <mxPoint y="50" as="targetPoint" />
          </mxGeometry>
        </mxCell>
        <mxCell id="VniyFCCBy8FmLIeSqYWK-23" value="" style="endArrow=none;html=1;rounded=0;" edge="1" parent="VniyFCCBy8FmLIeSqYWK-29" source="VniyFCCBy8FmLIeSqYWK-6" target="VniyFCCBy8FmLIeSqYWK-3">
          <mxGeometry width="50" height="50" relative="1" as="geometry">
            <mxPoint x="130" y="100" as="sourcePoint" />
            <mxPoint x="180" y="50" as="targetPoint" />
          </mxGeometry>
        </mxCell>
        <mxCell id="VniyFCCBy8FmLIeSqYWK-24" value="" style="endArrow=none;html=1;rounded=0;dashed=1;dashPattern=1 4;" edge="1" parent="VniyFCCBy8FmLIeSqYWK-29" target="VniyFCCBy8FmLIeSqYWK-6">
          <mxGeometry width="50" height="50" relative="1" as="geometry">
            <mxPoint y="110" as="sourcePoint" />
            <mxPoint x="180" y="50" as="targetPoint" />
          </mxGeometry>
        </mxCell>
        <mxCell id="VniyFCCBy8FmLIeSqYWK-25" value="" style="endArrow=none;html=1;rounded=0;" edge="1" parent="VniyFCCBy8FmLIeSqYWK-29" source="VniyFCCBy8FmLIeSqYWK-8" target="VniyFCCBy8FmLIeSqYWK-4">
          <mxGeometry width="50" height="50" relative="1" as="geometry">
            <mxPoint x="130" y="100" as="sourcePoint" />
            <mxPoint x="180" y="50" as="targetPoint" />
          </mxGeometry>
        </mxCell>
        <mxCell id="VniyFCCBy8FmLIeSqYWK-26" value="" style="endArrow=none;html=1;rounded=0;dashed=1;dashPattern=1 4;" edge="1" parent="VniyFCCBy8FmLIeSqYWK-29" source="VniyFCCBy8FmLIeSqYWK-8">
          <mxGeometry width="50" height="50" relative="1" as="geometry">
            <mxPoint x="130" y="100" as="sourcePoint" />
            <mxPoint x="60" y="120" as="targetPoint" />
          </mxGeometry>
        </mxCell>
        <mxCell id="VniyFCCBy8FmLIeSqYWK-27" value="" style="endArrow=none;html=1;rounded=0;" edge="1" parent="VniyFCCBy8FmLIeSqYWK-29" source="VniyFCCBy8FmLIeSqYWK-5" target="VniyFCCBy8FmLIeSqYWK-8">
          <mxGeometry width="50" height="50" relative="1" as="geometry">
            <mxPoint x="130" y="100" as="sourcePoint" />
            <mxPoint x="180" y="50" as="targetPoint" />
          </mxGeometry>
        </mxCell>
        <mxCell id="VniyFCCBy8FmLIeSqYWK-28" value="" style="endArrow=none;html=1;rounded=0;dashed=1;dashPattern=1 4;" edge="1" parent="VniyFCCBy8FmLIeSqYWK-29" source="VniyFCCBy8FmLIeSqYWK-4">
          <mxGeometry width="50" height="50" relative="1" as="geometry">
            <mxPoint x="130" y="100" as="sourcePoint" />
            <mxPoint x="160" y="90" as="targetPoint" />
          </mxGeometry>
        </mxCell>
        <mxCell id="VniyFCCBy8FmLIeSqYWK-57" value="" style="group" connectable="0" vertex="1" parent="1">
          <mxGeometry x="750" y="220" width="230" height="150" as="geometry" />
        </mxCell>
        <mxCell id="VniyFCCBy8FmLIeSqYWK-58" value="" style="ellipse;shape=cloud;whiteSpace=wrap;html=1;dashed=1;dashPattern=8 8;" vertex="1" parent="VniyFCCBy8FmLIeSqYWK-57">
          <mxGeometry x="-49" y="-16" width="270" height="160" as="geometry" />
        </mxCell>
        <mxCell id="VniyFCCBy8FmLIeSqYWK-59" value="" style="ellipse;whiteSpace=wrap;html=1;" vertex="1" parent="VniyFCCBy8FmLIeSqYWK-57">
          <mxGeometry x="40" y="30" width="40" height="20" as="geometry" />
        </mxCell>
        <mxCell id="VniyFCCBy8FmLIeSqYWK-60" value="" style="ellipse;whiteSpace=wrap;html=1;" vertex="1" parent="VniyFCCBy8FmLIeSqYWK-57">
          <mxGeometry x="100" y="40" width="40" height="20" as="geometry" />
        </mxCell>
        <mxCell id="VniyFCCBy8FmLIeSqYWK-61" value="&lt;i style=&quot;color: rgb(12, 13, 14); font-family: Georgia, Cambria, &amp;quot;Times New Roman&amp;quot;, Times, serif; text-align: left;&quot;&gt;v&lt;/i&gt;" style="ellipse;whiteSpace=wrap;html=1;fontFamily=Times New Roman;" vertex="1" parent="VniyFCCBy8FmLIeSqYWK-57">
          <mxGeometry x="60" y="60" width="40" height="20" as="geometry" />
        </mxCell>
        <mxCell id="VniyFCCBy8FmLIeSqYWK-62" value="" style="ellipse;whiteSpace=wrap;html=1;" vertex="1" parent="VniyFCCBy8FmLIeSqYWK-57">
          <mxGeometry x="110" y="80" width="40" height="20" as="geometry" />
        </mxCell>
        <mxCell id="VniyFCCBy8FmLIeSqYWK-63" value="" style="ellipse;whiteSpace=wrap;html=1;" vertex="1" parent="VniyFCCBy8FmLIeSqYWK-57">
          <mxGeometry x="-10" y="40" width="40" height="20" as="geometry" />
        </mxCell>
        <mxCell id="VniyFCCBy8FmLIeSqYWK-64" value="" style="ellipse;whiteSpace=wrap;html=1;" vertex="1" parent="VniyFCCBy8FmLIeSqYWK-57">
          <mxGeometry x="10" y="90" width="40" height="20" as="geometry" />
        </mxCell>
        <mxCell id="VniyFCCBy8FmLIeSqYWK-65" value="" style="ellipse;whiteSpace=wrap;html=1;" vertex="1" parent="VniyFCCBy8FmLIeSqYWK-57">
          <mxGeometry x="80" y="10" width="40" height="20" as="geometry" />
        </mxCell>
        <mxCell id="VniyFCCBy8FmLIeSqYWK-66" value="" style="ellipse;whiteSpace=wrap;html=1;" vertex="1" parent="VniyFCCBy8FmLIeSqYWK-57">
          <mxGeometry x="70" y="100" width="40" height="20" as="geometry" />
        </mxCell>
        <mxCell id="VniyFCCBy8FmLIeSqYWK-67" value="" style="endArrow=none;html=1;rounded=0;" edge="1" parent="VniyFCCBy8FmLIeSqYWK-57" source="VniyFCCBy8FmLIeSqYWK-59" target="VniyFCCBy8FmLIeSqYWK-65">
          <mxGeometry width="50" height="50" relative="1" as="geometry">
            <mxPoint x="130" y="100" as="sourcePoint" />
            <mxPoint x="180" y="50" as="targetPoint" />
          </mxGeometry>
        </mxCell>
        <mxCell id="VniyFCCBy8FmLIeSqYWK-68" value="" style="endArrow=none;html=1;rounded=0;" edge="1" parent="VniyFCCBy8FmLIeSqYWK-57" source="VniyFCCBy8FmLIeSqYWK-60" target="VniyFCCBy8FmLIeSqYWK-65">
          <mxGeometry width="50" height="50" relative="1" as="geometry">
            <mxPoint x="130" y="100" as="sourcePoint" />
            <mxPoint x="180" y="50" as="targetPoint" />
          </mxGeometry>
        </mxCell>
        <mxCell id="VniyFCCBy8FmLIeSqYWK-69" value="" style="endArrow=none;html=1;rounded=0;" edge="1" parent="VniyFCCBy8FmLIeSqYWK-57" source="VniyFCCBy8FmLIeSqYWK-61" target="VniyFCCBy8FmLIeSqYWK-65">
          <mxGeometry width="50" height="50" relative="1" as="geometry">
            <mxPoint x="130" y="100" as="sourcePoint" />
            <mxPoint x="180" y="50" as="targetPoint" />
          </mxGeometry>
        </mxCell>
        <mxCell id="VniyFCCBy8FmLIeSqYWK-70" value="" style="endArrow=none;html=1;rounded=0;" edge="1" parent="VniyFCCBy8FmLIeSqYWK-57" source="VniyFCCBy8FmLIeSqYWK-61" target="VniyFCCBy8FmLIeSqYWK-62">
          <mxGeometry width="50" height="50" relative="1" as="geometry">
            <mxPoint x="130" y="100" as="sourcePoint" />
            <mxPoint x="180" y="50" as="targetPoint" />
          </mxGeometry>
        </mxCell>
        <mxCell id="VniyFCCBy8FmLIeSqYWK-71" value="" style="endArrow=none;html=1;rounded=0;dashed=1;dashPattern=1 4;" edge="1" parent="VniyFCCBy8FmLIeSqYWK-57" target="VniyFCCBy8FmLIeSqYWK-60">
          <mxGeometry width="50" height="50" relative="1" as="geometry">
            <mxPoint x="150" y="70" as="sourcePoint" />
            <mxPoint x="180" y="50" as="targetPoint" />
          </mxGeometry>
        </mxCell>
        <mxCell id="VniyFCCBy8FmLIeSqYWK-72" value="" style="endArrow=none;html=1;rounded=0;dashed=1;dashPattern=1 4;" edge="1" parent="VniyFCCBy8FmLIeSqYWK-57" target="VniyFCCBy8FmLIeSqYWK-60">
          <mxGeometry width="50" height="50" relative="1" as="geometry">
            <mxPoint x="160" y="30" as="sourcePoint" />
            <mxPoint x="180" y="50" as="targetPoint" />
          </mxGeometry>
        </mxCell>
        <mxCell id="VniyFCCBy8FmLIeSqYWK-73" value="" style="endArrow=none;html=1;rounded=0;" edge="1" parent="VniyFCCBy8FmLIeSqYWK-57" source="VniyFCCBy8FmLIeSqYWK-59" target="VniyFCCBy8FmLIeSqYWK-63">
          <mxGeometry width="50" height="50" relative="1" as="geometry">
            <mxPoint x="130" y="100" as="sourcePoint" />
            <mxPoint x="180" y="50" as="targetPoint" />
          </mxGeometry>
        </mxCell>
        <mxCell id="VniyFCCBy8FmLIeSqYWK-75" value="" style="endArrow=none;html=1;rounded=0;" edge="1" parent="VniyFCCBy8FmLIeSqYWK-57" source="VniyFCCBy8FmLIeSqYWK-64" target="VniyFCCBy8FmLIeSqYWK-61">
          <mxGeometry width="50" height="50" relative="1" as="geometry">
            <mxPoint x="130" y="100" as="sourcePoint" />
            <mxPoint x="180" y="50" as="targetPoint" />
          </mxGeometry>
        </mxCell>
        <mxCell id="VniyFCCBy8FmLIeSqYWK-76" value="" style="endArrow=none;html=1;rounded=0;dashed=1;dashPattern=1 4;" edge="1" parent="VniyFCCBy8FmLIeSqYWK-57" target="VniyFCCBy8FmLIeSqYWK-64">
          <mxGeometry width="50" height="50" relative="1" as="geometry">
            <mxPoint y="110" as="sourcePoint" />
            <mxPoint x="180" y="50" as="targetPoint" />
          </mxGeometry>
        </mxCell>
        <mxCell id="VniyFCCBy8FmLIeSqYWK-77" value="" style="endArrow=none;html=1;rounded=0;" edge="1" parent="VniyFCCBy8FmLIeSqYWK-57" source="VniyFCCBy8FmLIeSqYWK-66" target="VniyFCCBy8FmLIeSqYWK-62">
          <mxGeometry width="50" height="50" relative="1" as="geometry">
            <mxPoint x="130" y="100" as="sourcePoint" />
            <mxPoint x="180" y="50" as="targetPoint" />
          </mxGeometry>
        </mxCell>
        <mxCell id="VniyFCCBy8FmLIeSqYWK-78" value="" style="endArrow=none;html=1;rounded=0;dashed=1;dashPattern=1 4;" edge="1" parent="VniyFCCBy8FmLIeSqYWK-57" source="VniyFCCBy8FmLIeSqYWK-66">
          <mxGeometry width="50" height="50" relative="1" as="geometry">
            <mxPoint x="130" y="100" as="sourcePoint" />
            <mxPoint x="60" y="120" as="targetPoint" />
          </mxGeometry>
        </mxCell>
        <mxCell id="VniyFCCBy8FmLIeSqYWK-79" value="" style="endArrow=none;html=1;rounded=0;" edge="1" parent="VniyFCCBy8FmLIeSqYWK-57" source="VniyFCCBy8FmLIeSqYWK-63" target="VniyFCCBy8FmLIeSqYWK-64">
          <mxGeometry width="50" height="50" relative="1" as="geometry">
            <mxPoint x="130" y="100" as="sourcePoint" />
            <mxPoint x="180" y="50" as="targetPoint" />
          </mxGeometry>
        </mxCell>
        <mxCell id="VniyFCCBy8FmLIeSqYWK-80" value="" style="endArrow=none;html=1;rounded=0;dashed=1;dashPattern=1 4;" edge="1" parent="VniyFCCBy8FmLIeSqYWK-57" source="VniyFCCBy8FmLIeSqYWK-62">
          <mxGeometry width="50" height="50" relative="1" as="geometry">
            <mxPoint x="130" y="100" as="sourcePoint" />
            <mxPoint x="160" y="90" as="targetPoint" />
          </mxGeometry>
        </mxCell>
        <mxCell id="VniyFCCBy8FmLIeSqYWK-81" value="" style="endArrow=classic;html=1;rounded=0;dashed=1;dashPattern=1 1;strokeWidth=3;" edge="1" parent="1" source="VniyFCCBy8FmLIeSqYWK-3" target="VniyFCCBy8FmLIeSqYWK-61">
          <mxGeometry relative="1" as="geometry">
            <mxPoint x="620" y="310" as="sourcePoint" />
            <mxPoint x="720" y="310" as="targetPoint" />
          </mxGeometry>
        </mxCell>
        <mxCell id="VniyFCCBy8FmLIeSqYWK-82" value="payment&lt;div style=&quot;font-size: 12px;&quot;&gt;path&lt;/div&gt;&lt;div style=&quot;&quot;&gt;&lt;font style=&quot;&quot;&gt;&lt;i style=&quot;font-size: 12px;&quot;&gt;&lt;font face=&quot;symbol&quot;&gt;[&lt;/font&gt;&lt;font face=&quot;Times New Roman&quot;&gt;u,&amp;nbsp;&lt;/font&gt;&lt;/i&gt;&lt;i style=&quot;text-wrap-mode: wrap; background-color: rgb(251, 251, 251); color: rgb(12, 13, 14); font-family: Georgia, Cambria, &amp;quot;Times New Roman&amp;quot;, Times, serif; text-align: left;&quot;&gt;&lt;font style=&quot;font-size: 11px;&quot;&gt;v&lt;/font&gt;&lt;/i&gt;&lt;i style=&quot;font-size: 12px;&quot;&gt;&lt;font face=&quot;symbol&quot;&gt;]&lt;/font&gt;&lt;/i&gt;&lt;/font&gt;&lt;/div&gt;" style="edgeLabel;resizable=0;html=1;;align=center;verticalAlign=middle;fontSize=12;" connectable="0" vertex="1" parent="VniyFCCBy8FmLIeSqYWK-81">
          <mxGeometry relative="1" as="geometry" />
        </mxCell>
        <mxCell id="VniyFCCBy8FmLIeSqYWK-85" value="" style="shape=umlActor;verticalLabelPosition=bottom;verticalAlign=top;html=1;outlineConnect=0;" vertex="1" parent="1">
          <mxGeometry x="615" y="89" width="30" height="60" as="geometry" />
        </mxCell>
        <mxCell id="VniyFCCBy8FmLIeSqYWK-97" value="" style="edgeStyle=orthogonalEdgeStyle;rounded=0;orthogonalLoop=1;jettySize=auto;html=1;" edge="1" parent="1" source="VniyFCCBy8FmLIeSqYWK-86" target="VniyFCCBy8FmLIeSqYWK-85">
          <mxGeometry relative="1" as="geometry" />
        </mxCell>
        <mxCell id="VniyFCCBy8FmLIeSqYWK-86" value="neighborhood&lt;div&gt;observation&lt;/div&gt;" style="rounded=0;whiteSpace=wrap;html=1;" vertex="1" parent="1">
          <mxGeometry x="587.5" y="11" width="85" height="30" as="geometry" />
        </mxCell>
        <mxCell id="VniyFCCBy8FmLIeSqYWK-96" style="edgeStyle=orthogonalEdgeStyle;rounded=0;orthogonalLoop=1;jettySize=auto;html=1;" edge="1" parent="1" source="VniyFCCBy8FmLIeSqYWK-87">
          <mxGeometry relative="1" as="geometry">
            <mxPoint x="630" y="270" as="targetPoint" />
          </mxGeometry>
        </mxCell>
        <mxCell id="VniyFCCBy8FmLIeSqYWK-87" value="pathfinding&lt;div&gt;algorithm&lt;/div&gt;" style="shape=hexagon;perimeter=hexagonPerimeter2;whiteSpace=wrap;html=1;fixedSize=1;" vertex="1" parent="1">
          <mxGeometry x="580" y="200" width="100" height="50" as="geometry" />
        </mxCell>
        <mxCell id="VniyFCCBy8FmLIeSqYWK-89" value="" style="endArrow=classic;html=1;rounded=0;" edge="1" parent="1">
          <mxGeometry relative="1" as="geometry">
            <mxPoint x="630" y="150" as="sourcePoint" />
            <mxPoint x="630" y="200" as="targetPoint" />
          </mxGeometry>
        </mxCell>
        <mxCell id="VniyFCCBy8FmLIeSqYWK-90" value="&lt;p style=&quot;line-height: 120%;&quot;&gt;&lt;br&gt;&lt;/p&gt;" style="edgeLabel;resizable=0;html=1;;align=center;verticalAlign=middle;" connectable="0" vertex="1" parent="VniyFCCBy8FmLIeSqYWK-89">
          <mxGeometry relative="1" as="geometry">
            <mxPoint x="-10" y="-5" as="offset" />
          </mxGeometry>
        </mxCell>
        <mxCell id="VniyFCCBy8FmLIeSqYWK-92" value="&lt;i style=&quot;font-size: 11px; text-wrap: nowrap; background-color: rgb(255, 255, 255); font-family: symbol;&quot;&gt;&lt;font style=&quot;font-size: 14px;&quot;&gt;h&lt;/font&gt;&lt;/i&gt;" style="text;html=1;align=center;verticalAlign=middle;whiteSpace=wrap;rounded=0;rotation=0;" vertex="1" parent="1">
          <mxGeometry x="610" y="157" width="60" height="30" as="geometry" />
        </mxCell>
        <mxCell id="VniyFCCBy8FmLIeSqYWK-93" value="&lt;span style=&quot;text-wrap: nowrap; background-color: rgb(255, 255, 255);&quot;&gt;&lt;font style=&quot;font-size: 12px;&quot;&gt;action&lt;/font&gt;&lt;/span&gt;" style="text;html=1;align=center;verticalAlign=middle;whiteSpace=wrap;rounded=0;rotation=-90;fontSize=13;" vertex="1" parent="1">
          <mxGeometry x="590" y="157" width="60" height="30" as="geometry" />
        </mxCell>
        <mxCell id="VniyFCCBy8FmLIeSqYWK-94" value="" style="endArrow=classic;html=1;rounded=0;edgeStyle=orthogonalEdgeStyle;dashed=1;dashPattern=8 8;" edge="1" parent="1">
          <mxGeometry width="50" height="50" relative="1" as="geometry">
            <mxPoint x="630" y="320" as="sourcePoint" />
            <mxPoint x="650" y="110" as="targetPoint" />
            <Array as="points">
              <mxPoint x="630" y="340" />
              <mxPoint x="700" y="340" />
              <mxPoint x="700" y="110" />
            </Array>
          </mxGeometry>
        </mxCell>
        <mxCell id="VniyFCCBy8FmLIeSqYWK-95" value="&lt;span style=&quot;text-wrap: nowrap; background-color: rgb(255, 255, 255);&quot;&gt;&lt;font style=&quot;font-size: 12px;&quot;&gt;reward&lt;/font&gt;&lt;/span&gt;" style="text;html=1;align=center;verticalAlign=middle;whiteSpace=wrap;rounded=0;rotation=-90;fontSize=13;" vertex="1" parent="1">
          <mxGeometry x="660" y="157" width="60" height="30" as="geometry" />
        </mxCell>
        <mxCell id="VniyFCCBy8FmLIeSqYWK-98" value="&lt;span style=&quot;text-wrap: nowrap; background-color: rgb(255, 255, 255);&quot;&gt;&lt;font style=&quot;font-size: 12px;&quot;&gt;state&lt;/font&gt;&lt;/span&gt;" style="text;html=1;align=center;verticalAlign=middle;whiteSpace=wrap;rounded=0;rotation=-90;fontSize=13;" vertex="1" parent="1">
          <mxGeometry x="590" y="49" width="60" height="30" as="geometry" />
        </mxCell>
        <mxCell id="VniyFCCBy8FmLIeSqYWK-99" style="edgeStyle=orthogonalEdgeStyle;rounded=0;orthogonalLoop=1;jettySize=auto;html=1;entryX=0;entryY=0.5;entryDx=0;entryDy=0;exitX=0.4;exitY=0.1;exitDx=0;exitDy=0;exitPerimeter=0;" edge="1" parent="1" source="VniyFCCBy8FmLIeSqYWK-55" target="VniyFCCBy8FmLIeSqYWK-86">
          <mxGeometry relative="1" as="geometry">
            <Array as="points">
              <mxPoint x="410" y="220" />
              <mxPoint x="410" y="26" />
            </Array>
          </mxGeometry>
        </mxCell>
        <mxCell id="VniyFCCBy8FmLIeSqYWK-100" style="edgeStyle=orthogonalEdgeStyle;rounded=0;orthogonalLoop=1;jettySize=auto;html=1;exitX=0.439;exitY=0.095;exitDx=0;exitDy=0;exitPerimeter=0;" edge="1" parent="1" source="VniyFCCBy8FmLIeSqYWK-58" target="VniyFCCBy8FmLIeSqYWK-86">
          <mxGeometry relative="1" as="geometry">
            <Array as="points">
              <mxPoint x="820" y="26" />
            </Array>
          </mxGeometry>
        </mxCell>
        <mxCell id="VniyFCCBy8FmLIeSqYWK-101" value="RL-agent" style="text;html=1;align=center;verticalAlign=middle;whiteSpace=wrap;rounded=0;" vertex="1" parent="1">
          <mxGeometry x="560" y="119" width="60" height="30" as="geometry" />
        </mxCell>
      </root>
    </mxGraphModel>
  </diagram>
</mxfile>
